<?xml version="1.0" encoding="iso-8859-1"?>
<!-- Generator: Adobe Illustrator 16.0.0, SVG Export Plug-In . SVG Version: 6.00 Build 0)  -->
<!DOCTYPE svg PUBLIC "-//W3C//DTD SVG 1.1//EN" "http://www.w3.org/Graphics/SVG/1.1/DTD/svg11.dtd">
<svg version="1.1" id="Capa_1" xmlns="http://www.w3.org/2000/svg" xmlns:xlink="http://www.w3.org/1999/xlink" x="0px" y="0px"
	 width="27.555px" height="27.555px" viewBox="0 0 27.555 27.555" style="enable-background:new 0 0 27.555 27.555;"
	 xml:space="preserve">
<g>
	<path d="M13.777,0C7.108,0,1.701,5.407,1.701,12.076c0,3.45,1.454,6.553,3.773,8.752L5.07,27.555l5.736-3.787
		c0.952,0.241,1.944,0.383,2.971,0.383c6.67,0,12.076-5.406,12.076-12.076C25.854,5.407,20.447,0,13.777,0z M13.777,16.628H7.739
		c-0.445,0-0.805-0.36-0.805-0.806c0-0.443,0.36-0.805,0.805-0.805h6.038c0.445,0,0.805,0.36,0.805,0.805
		C14.583,16.268,14.222,16.628,13.777,16.628z M19.815,12.882H7.739c-0.445,0-0.805-0.36-0.805-0.805
		c0-0.444,0.36-0.805,0.805-0.805h12.076c0.444,0,0.805,0.361,0.805,0.805C20.62,12.521,20.26,12.882,19.815,12.882z M19.815,9.135
		H7.739c-0.445,0-0.805-0.361-0.805-0.805c0-0.445,0.36-0.805,0.805-0.805h12.076c0.444,0,0.805,0.36,0.805,0.805
		C20.62,8.774,20.26,9.135,19.815,9.135z"/>
</g>
<g>
</g>
<g>
</g>
<g>
</g>
<g>
</g>
<g>
</g>
<g>
</g>
<g>
</g>
<g>
</g>
<g>
</g>
<g>
</g>
<g>
</g>
<g>
</g>
<g>
</g>
<g>
</g>
<g>
</g>
</svg>
