<?xml version="1.0"?>
<svg xmlns="http://www.w3.org/2000/svg" id="Layer_1" data-name="Layer 1" viewBox="0 0 512 512" width="512" height="512"><title>Promotion ads</title><path d="M49.278,295.007a326.113,326.113,0,0,1,53.8,4.5v-98.8a326.1,326.1,0,0,1-53.8,4.5,19.469,19.469,0,0,0-19.447,19.447V275.56A19.469,19.469,0,0,0,49.278,295.007Z"/><path d="M263.4,139.17l-75.762,35.355a328.04,328.04,0,0,1-72.555,23.952V301.749A328.092,328.092,0,0,1,187.633,325.7L263.4,361.056Z"/><path d="M103.078,363.352V311.687a315.9,315.9,0,0,0-38.894-4.312V407.847A44.962,44.962,0,0,0,103.078,363.352Z"/><polygon points="275.395 133.57 275.395 366.656 305.382 380.65 305.382 119.576 275.395 133.57"/><path d="M355,250.113a44.959,44.959,0,0,0-37.621-44.3v88.592A44.959,44.959,0,0,0,355,250.113Z"/><path d="M364.476,347.474a105.817,105.817,0,0,0,0-194.728,6,6,0,0,0-4.7,11.042,93.816,93.816,0,0,1,0,172.644,6,6,0,1,0,4.7,11.042Z"/><path d="M383.638,396.067a5.987,5.987,0,0,0,2.347-.481,158.107,158.107,0,0,0,0-290.953,6,6,0,1,0-4.7,11.042,146.107,146.107,0,0,1,0,268.869,6,6,0,0,0,2.352,11.523Z"/></svg>
